<?xml version="1.0" encoding="UTF-8"?>
<svg xmlns="http://www.w3.org/2000/svg" xmlns:xlink="http://www.w3.org/1999/xlink" width="2162" height="770" viewBox="-76.0 -210.9 2162.5 770.4">
  <title>Utilities U200</title>
  <!-- pandid:provenance -->
  <!-- /pandid:provenance -->
  <!-- Background -->
  <rect x="-76.0" y="-210.9" width="2162.5" height="770.4" fill="white" />
    <rect x="-68.0" y="-202.9" width="2146.5" height="754.4" fill="none" stroke="black" stroke-width="1"/>
    <rect x="-52.0" y="-186.9" width="2114.5" height="722.4" fill="none" stroke="black" stroke-width="2"/>
    <text x="36.1" y="-191.9" font-family="sans-serif" font-size="9.0" text-anchor="middle" font-weight="bold" fill="black">1</text>
    <text x="36.1" y="546.5" font-family="sans-serif" font-size="9.0" text-anchor="middle" font-weight="bold" fill="black">1</text>
    <line x1="124.2" y1="-202.9" x2="124.2" y2="-186.9" stroke="black" stroke-width="0.75"/>
    <line x1="124.2" y1="535.5" x2="124.2" y2="551.5" stroke="black" stroke-width="0.75"/>
    <text x="212.3" y="-191.9" font-family="sans-serif" font-size="9.0" text-anchor="middle" font-weight="bold" fill="black">2</text>
    <text x="212.3" y="546.5" font-family="sans-serif" font-size="9.0" text-anchor="middle" font-weight="bold" fill="black">2</text>
    <line x1="300.4" y1="-202.9" x2="300.4" y2="-186.9" stroke="black" stroke-width="0.75"/>
    <line x1="300.4" y1="535.5" x2="300.4" y2="551.5" stroke="black" stroke-width="0.75"/>
    <text x="388.5" y="-191.9" font-family="sans-serif" font-size="9.0" text-anchor="middle" font-weight="bold" fill="black">3</text>
    <text x="388.5" y="546.5" font-family="sans-serif" font-size="9.0" text-anchor="middle" font-weight="bold" fill="black">3</text>
    <line x1="476.6" y1="-202.9" x2="476.6" y2="-186.9" stroke="black" stroke-width="0.75"/>
    <line x1="476.6" y1="535.5" x2="476.6" y2="551.5" stroke="black" stroke-width="0.75"/>
    <text x="564.7" y="-191.9" font-family="sans-serif" font-size="9.0" text-anchor="middle" font-weight="bold" fill="black">4</text>
    <text x="564.7" y="546.5" font-family="sans-serif" font-size="9.0" text-anchor="middle" font-weight="bold" fill="black">4</text>
    <line x1="652.8" y1="-202.9" x2="652.8" y2="-186.9" stroke="black" stroke-width="0.75"/>
    <line x1="652.8" y1="535.5" x2="652.8" y2="551.5" stroke="black" stroke-width="0.75"/>
    <text x="740.9" y="-191.9" font-family="sans-serif" font-size="9.0" text-anchor="middle" font-weight="bold" fill="black">5</text>
    <text x="740.9" y="546.5" font-family="sans-serif" font-size="9.0" text-anchor="middle" font-weight="bold" fill="black">5</text>
    <line x1="829.0" y1="-202.9" x2="829.0" y2="-186.9" stroke="black" stroke-width="0.75"/>
    <line x1="829.0" y1="535.5" x2="829.0" y2="551.5" stroke="black" stroke-width="0.75"/>
    <text x="917.1" y="-191.9" font-family="sans-serif" font-size="9.0" text-anchor="middle" font-weight="bold" fill="black">6</text>
    <text x="917.1" y="546.5" font-family="sans-serif" font-size="9.0" text-anchor="middle" font-weight="bold" fill="black">6</text>
    <line x1="1005.2" y1="-202.9" x2="1005.2" y2="-186.9" stroke="black" stroke-width="0.75"/>
    <line x1="1005.2" y1="535.5" x2="1005.2" y2="551.5" stroke="black" stroke-width="0.75"/>
    <text x="1093.4" y="-191.9" font-family="sans-serif" font-size="9.0" text-anchor="middle" font-weight="bold" fill="black">7</text>
    <text x="1093.4" y="546.5" font-family="sans-serif" font-size="9.0" text-anchor="middle" font-weight="bold" fill="black">7</text>
    <line x1="1181.5" y1="-202.9" x2="1181.5" y2="-186.9" stroke="black" stroke-width="0.75"/>
    <line x1="1181.5" y1="535.5" x2="1181.5" y2="551.5" stroke="black" stroke-width="0.75"/>
    <text x="1269.6" y="-191.9" font-family="sans-serif" font-size="9.0" text-anchor="middle" font-weight="bold" fill="black">8</text>
    <text x="1269.6" y="546.5" font-family="sans-serif" font-size="9.0" text-anchor="middle" font-weight="bold" fill="black">8</text>
    <line x1="1357.7" y1="-202.9" x2="1357.7" y2="-186.9" stroke="black" stroke-width="0.75"/>
    <line x1="1357.7" y1="535.5" x2="1357.7" y2="551.5" stroke="black" stroke-width="0.75"/>
    <text x="1445.8" y="-191.9" font-family="sans-serif" font-size="9.0" text-anchor="middle" font-weight="bold" fill="black">9</text>
    <text x="1445.8" y="546.5" font-family="sans-serif" font-size="9.0" text-anchor="middle" font-weight="bold" fill="black">9</text>
    <line x1="1533.9" y1="-202.9" x2="1533.9" y2="-186.9" stroke="black" stroke-width="0.75"/>
    <line x1="1533.9" y1="535.5" x2="1533.9" y2="551.5" stroke="black" stroke-width="0.75"/>
    <text x="1622.0" y="-191.9" font-family="sans-serif" font-size="9.0" text-anchor="middle" font-weight="bold" fill="black">10</text>
    <text x="1622.0" y="546.5" font-family="sans-serif" font-size="9.0" text-anchor="middle" font-weight="bold" fill="black">10</text>
    <line x1="1710.1" y1="-202.9" x2="1710.1" y2="-186.9" stroke="black" stroke-width="0.75"/>
    <line x1="1710.1" y1="535.5" x2="1710.1" y2="551.5" stroke="black" stroke-width="0.75"/>
    <text x="1798.2" y="-191.9" font-family="sans-serif" font-size="9.0" text-anchor="middle" font-weight="bold" fill="black">11</text>
    <text x="1798.2" y="546.5" font-family="sans-serif" font-size="9.0" text-anchor="middle" font-weight="bold" fill="black">11</text>
    <line x1="1886.3" y1="-202.9" x2="1886.3" y2="-186.9" stroke="black" stroke-width="0.75"/>
    <line x1="1886.3" y1="535.5" x2="1886.3" y2="551.5" stroke="black" stroke-width="0.75"/>
    <text x="1974.4" y="-191.9" font-family="sans-serif" font-size="9.0" text-anchor="middle" font-weight="bold" fill="black">12</text>
    <text x="1974.4" y="546.5" font-family="sans-serif" font-size="9.0" text-anchor="middle" font-weight="bold" fill="black">12</text>
    <text x="-60.0" y="-93.6" font-family="sans-serif" font-size="9.0" text-anchor="middle" font-weight="bold" fill="black">A</text>
    <text x="2070.5" y="-93.6" font-family="sans-serif" font-size="9.0" text-anchor="middle" font-weight="bold" fill="black">A</text>
    <line x1="-68.0" y1="-6.3" x2="-52.0" y2="-6.3" stroke="black" stroke-width="0.75"/>
    <line x1="2062.5" y1="-6.3" x2="2078.5" y2="-6.3" stroke="black" stroke-width="0.75"/>
    <text x="-60.0" y="87.0" font-family="sans-serif" font-size="9.0" text-anchor="middle" font-weight="bold" fill="black">B</text>
    <text x="2070.5" y="87.0" font-family="sans-serif" font-size="9.0" text-anchor="middle" font-weight="bold" fill="black">B</text>
    <line x1="-68.0" y1="174.3" x2="-52.0" y2="174.3" stroke="black" stroke-width="0.75"/>
    <line x1="2062.5" y1="174.3" x2="2078.5" y2="174.3" stroke="black" stroke-width="0.75"/>
    <text x="-60.0" y="267.6" font-family="sans-serif" font-size="9.0" text-anchor="middle" font-weight="bold" fill="black">C</text>
    <text x="2070.5" y="267.6" font-family="sans-serif" font-size="9.0" text-anchor="middle" font-weight="bold" fill="black">C</text>
    <line x1="-68.0" y1="354.9" x2="-52.0" y2="354.9" stroke="black" stroke-width="0.75"/>
    <line x1="2062.5" y1="354.9" x2="2078.5" y2="354.9" stroke="black" stroke-width="0.75"/>
    <text x="-60.0" y="448.2" font-family="sans-serif" font-size="9.0" text-anchor="middle" font-weight="bold" fill="black">D</text>
    <text x="2070.5" y="448.2" font-family="sans-serif" font-size="9.0" text-anchor="middle" font-weight="bold" fill="black">D</text>
    <rect x="-46.0" y="-180.9" width="137.6" height="85.0" fill="white" stroke="black" stroke-width="1.5"/>
    <text x="22.8" y="-163.9" font-family="sans-serif" font-size="12.0" text-anchor="middle" font-weight="bold" fill="black">LEGEND</text>
    <line x1="-46.0" y1="-157.9" x2="91.6" y2="-157.9" stroke="black" stroke-width="1"/>
    <text x="-37.0" y="-143.9" font-family="sans-serif" font-size="11.0" text-anchor="start" font-weight="bold" fill="black">BFW</text>
    <text x="-0.6" y="-143.9" font-family="sans-serif" font-size="11.0" text-anchor="start" fill="black">Boiler Feedwater</text>
    <text x="-37.0" y="-125.9" font-family="sans-serif" font-size="11.0" text-anchor="start" font-weight="bold" fill="black">DA</text>
    <text x="-0.6" y="-125.9" font-family="sans-serif" font-size="11.0" text-anchor="start" fill="black">Deaerator</text>
    <text x="-37.0" y="-107.9" font-family="sans-serif" font-size="11.0" text-anchor="start" font-weight="bold" fill="black">NTS</text>
    <text x="-0.6" y="-107.9" font-family="sans-serif" font-size="11.0" text-anchor="start" fill="black">Not To Scale</text>
    <rect x="1870.5" y="-186.9" width="192.0" height="67.0" fill="white" stroke="black" stroke-width="1.5"/>
    <text x="1966.5" y="-169.9" font-family="sans-serif" font-size="12.0" text-anchor="middle" font-weight="bold" fill="black">EQUIPMENT LIST</text>
    <line x1="1870.5" y1="-163.9" x2="2062.5" y2="-163.9" stroke="black" stroke-width="1"/>
    <text x="1879.5" y="-149.9" font-family="sans-serif" font-size="11.0" text-anchor="start" font-weight="bold" fill="black">P-201A/B</text>
    <text x="1938.6" y="-149.9" font-family="sans-serif" font-size="11.0" text-anchor="start" fill="black">Boiler Feedwater Pump</text>
    <text x="1879.5" y="-131.9" font-family="sans-serif" font-size="11.0" text-anchor="start" font-weight="bold" fill="black">V-201</text>
    <text x="1938.6" y="-131.9" font-family="sans-serif" font-size="11.0" text-anchor="start" fill="black">Deaerator Drum</text>
    <rect x="1762.9" y="-105.9" width="299.6" height="85.0" fill="white" stroke="black" stroke-width="1.5"/>
    <text x="1912.7" y="-88.9" font-family="sans-serif" font-size="12.0" text-anchor="middle" font-weight="bold" fill="black">NOTES</text>
    <line x1="1762.9" y1="-82.9" x2="2062.5" y2="-82.9" stroke="black" stroke-width="1"/>
    <text x="1771.9" y="-68.9" font-family="sans-serif" font-size="11.0" text-anchor="start" font-weight="bold" fill="black">1.</text>
    <text x="1793.0" y="-68.9" font-family="sans-serif" font-size="11.0" text-anchor="start" fill="black">Deaerator vent to atmosphere; no isolation permitted.</text>
    <text x="1771.9" y="-50.9" font-family="sans-serif" font-size="11.0" text-anchor="start" font-weight="bold" fill="black">2.</text>
    <text x="1793.0" y="-50.9" font-family="sans-serif" font-size="11.0" text-anchor="start" fill="black">FV-201 maintains P-201A/B above 10% of rated flow.</text>
    <text x="1771.9" y="-32.9" font-family="sans-serif" font-size="11.0" text-anchor="start" font-weight="bold" fill="black">3.</text>
    <text x="1793.0" y="-32.9" font-family="sans-serif" font-size="11.0" text-anchor="start" fill="black">Dissolved oxygen sampled downstream of CV-201.</text>
    <g id="stream_table">
      <rect x="-52.0" y="415.5" width="122.0" height="20.0" fill="#eee" stroke="black" stroke-width="0.75"/>
      <text x="-47.0" y="429.0" font-family="sans-serif" font-size="10.5" font-weight="bold" text-anchor="start">Stream Number</text>
      <rect x="70.0" y="415.5" width="58.4" height="20.0" fill="#eee" stroke="black" stroke-width="0.75"/>
      <text x="99.2" y="429.0" font-family="sans-serif" font-size="10.5" font-weight="bold" text-anchor="middle">S1</text>
      <rect x="128.4" y="415.5" width="58.4" height="20.0" fill="#eee" stroke="black" stroke-width="0.75"/>
      <text x="157.5" y="429.0" font-family="sans-serif" font-size="10.5" font-weight="bold" text-anchor="middle">S2</text>
      <rect x="186.7" y="415.5" width="58.4" height="20.0" fill="#eee" stroke="black" stroke-width="0.75"/>
      <text x="215.9" y="429.0" font-family="sans-serif" font-size="10.5" font-weight="bold" text-anchor="middle">S3</text>
      <rect x="245.1" y="415.5" width="58.4" height="20.0" fill="#eee" stroke="black" stroke-width="0.75"/>
      <text x="274.3" y="429.0" font-family="sans-serif" font-size="10.5" font-weight="bold" text-anchor="middle">S4</text>
      <rect x="303.5" y="415.5" width="58.4" height="20.0" fill="#eee" stroke="black" stroke-width="0.75"/>
      <text x="332.6" y="429.0" font-family="sans-serif" font-size="10.5" font-weight="bold" text-anchor="middle">S5</text>
      <rect x="361.8" y="415.5" width="58.4" height="20.0" fill="#eee" stroke="black" stroke-width="0.75"/>
      <text x="391.0" y="429.0" font-family="sans-serif" font-size="10.5" font-weight="bold" text-anchor="middle">S6</text>
      <rect x="420.2" y="415.5" width="58.4" height="20.0" fill="#eee" stroke="black" stroke-width="0.75"/>
      <text x="449.4" y="429.0" font-family="sans-serif" font-size="10.5" font-weight="bold" text-anchor="middle">S7</text>
      <rect x="478.5" y="415.5" width="58.4" height="20.0" fill="#eee" stroke="black" stroke-width="0.75"/>
      <text x="507.7" y="429.0" font-family="sans-serif" font-size="10.5" font-weight="bold" text-anchor="middle">S8</text>
      <rect x="-52.0" y="435.5" width="122.0" height="20.0" fill="#f9f9f9" stroke="black" stroke-width="0.75"/>
      <text x="-47.0" y="449.0" font-family="sans-serif" font-size="10.5" font-weight="bold" text-anchor="start">Temperature</text>
      <rect x="70.0" y="435.5" width="58.4" height="20.0" fill="white" stroke="black" stroke-width="0.75"/>
      <text x="99.2" y="449.0" font-family="sans-serif" font-size="10.5" text-anchor="middle">25 C</text>
      <rect x="128.4" y="435.5" width="58.4" height="20.0" fill="white" stroke="black" stroke-width="0.75"/>
      <text x="157.5" y="449.0" font-family="sans-serif" font-size="10.5" text-anchor="middle">88 C</text>
      <rect x="186.7" y="435.5" width="58.4" height="20.0" fill="white" stroke="black" stroke-width="0.75"/>
      <text x="215.9" y="449.0" font-family="sans-serif" font-size="10.5" text-anchor="middle">76 C</text>
      <rect x="245.1" y="435.5" width="58.4" height="20.0" fill="white" stroke="black" stroke-width="0.75"/>
      <text x="274.3" y="449.0" font-family="sans-serif" font-size="10.5" text-anchor="middle">77 C</text>
      <rect x="303.5" y="435.5" width="58.4" height="20.0" fill="white" stroke="black" stroke-width="0.75"/>
      <text x="332.6" y="449.0" font-family="sans-serif" font-size="10.5" text-anchor="middle">77 C</text>
      <rect x="361.8" y="435.5" width="58.4" height="20.0" fill="white" stroke="black" stroke-width="0.75"/>
      <text x="391.0" y="449.0" font-family="sans-serif" font-size="10.5" text-anchor="middle">77 C</text>
      <rect x="420.2" y="435.5" width="58.4" height="20.0" fill="white" stroke="black" stroke-width="0.75"/>
      <text x="449.4" y="449.0" font-family="sans-serif" font-size="10.5" text-anchor="middle">105 C</text>
      <rect x="478.5" y="435.5" width="58.4" height="20.0" fill="white" stroke="black" stroke-width="0.75"/>
      <text x="507.7" y="449.0" font-family="sans-serif" font-size="10.5" text-anchor="middle">105 C</text>
      <rect x="-52.0" y="455.5" width="122.0" height="20.0" fill="#f9f9f9" stroke="black" stroke-width="0.75"/>
      <text x="-47.0" y="469.0" font-family="sans-serif" font-size="10.5" font-weight="bold" text-anchor="start">Pressure</text>
      <rect x="70.0" y="455.5" width="58.4" height="20.0" fill="white" stroke="black" stroke-width="0.75"/>
      <text x="99.2" y="469.0" font-family="sans-serif" font-size="10.5" text-anchor="middle">4.0 barg</text>
      <rect x="128.4" y="455.5" width="58.4" height="20.0" fill="white" stroke="black" stroke-width="0.75"/>
      <text x="157.5" y="469.0" font-family="sans-serif" font-size="10.5" text-anchor="middle">3.5 barg</text>
      <rect x="186.7" y="455.5" width="58.4" height="20.0" fill="white" stroke="black" stroke-width="0.75"/>
      <text x="215.9" y="469.0" font-family="sans-serif" font-size="10.5" text-anchor="middle">3.4 barg</text>
      <rect x="245.1" y="455.5" width="58.4" height="20.0" fill="white" stroke="black" stroke-width="0.75"/>
      <text x="274.3" y="469.0" font-family="sans-serif" font-size="10.5" text-anchor="middle">12.0 barg</text>
      <rect x="303.5" y="455.5" width="58.4" height="20.0" fill="white" stroke="black" stroke-width="0.75"/>
      <text x="332.6" y="469.0" font-family="sans-serif" font-size="10.5" text-anchor="middle">11.6 barg</text>
      <rect x="361.8" y="455.5" width="58.4" height="20.0" fill="white" stroke="black" stroke-width="0.75"/>
      <text x="391.0" y="469.0" font-family="sans-serif" font-size="10.5" text-anchor="middle">11.6 barg</text>
      <rect x="420.2" y="455.5" width="58.4" height="20.0" fill="white" stroke="black" stroke-width="0.75"/>
      <text x="449.4" y="469.0" font-family="sans-serif" font-size="10.5" text-anchor="middle">0.2 barg</text>
      <rect x="478.5" y="455.5" width="58.4" height="20.0" fill="white" stroke="black" stroke-width="0.75"/>
      <text x="507.7" y="469.0" font-family="sans-serif" font-size="10.5" text-anchor="middle">0.2 barg</text>
      <rect x="-52.0" y="475.5" width="122.0" height="20.0" fill="#f9f9f9" stroke="black" stroke-width="0.75"/>
      <text x="-47.0" y="489.0" font-family="sans-serif" font-size="10.5" font-weight="bold" text-anchor="start">Mass Flow</text>
      <rect x="70.0" y="475.5" width="58.4" height="20.0" fill="white" stroke="black" stroke-width="0.75"/>
      <text x="99.2" y="489.0" font-family="sans-serif" font-size="10.5" text-anchor="middle">12.0 t/h</text>
      <rect x="128.4" y="475.5" width="58.4" height="20.0" fill="white" stroke="black" stroke-width="0.75"/>
      <text x="157.5" y="489.0" font-family="sans-serif" font-size="10.5" text-anchor="middle">48.0 t/h</text>
      <rect x="186.7" y="475.5" width="58.4" height="20.0" fill="white" stroke="black" stroke-width="0.75"/>
      <text x="215.9" y="489.0" font-family="sans-serif" font-size="10.5" text-anchor="middle">66.0 t/h</text>
      <rect x="245.1" y="475.5" width="58.4" height="20.0" fill="white" stroke="black" stroke-width="0.75"/>
      <text x="274.3" y="489.0" font-family="sans-serif" font-size="10.5" text-anchor="middle">66.0 t/h</text>
      <rect x="303.5" y="475.5" width="58.4" height="20.0" fill="white" stroke="black" stroke-width="0.75"/>
      <text x="332.6" y="489.0" font-family="sans-serif" font-size="10.5" text-anchor="middle">60.0 t/h</text>
      <rect x="361.8" y="475.5" width="58.4" height="20.0" fill="white" stroke="black" stroke-width="0.75"/>
      <text x="391.0" y="489.0" font-family="sans-serif" font-size="10.5" text-anchor="middle">6.0 t/h</text>
      <rect x="420.2" y="475.5" width="58.4" height="20.0" fill="white" stroke="black" stroke-width="0.75"/>
      <text x="449.4" y="489.0" font-family="sans-serif" font-size="10.5" text-anchor="middle">0.3 t/h</text>
      <rect x="478.5" y="475.5" width="58.4" height="20.0" fill="white" stroke="black" stroke-width="0.75"/>
      <text x="507.7" y="489.0" font-family="sans-serif" font-size="10.5" text-anchor="middle">59.7 t/h</text>
      <rect x="-52.0" y="495.5" width="588.9" height="20.0" fill="#f4f4f4" stroke="black" stroke-width="0.75"/>
      <text x="-47.0" y="509.0" font-family="sans-serif" font-size="10.5" font-weight="bold" text-anchor="start">Water Quality</text>
      <rect x="-52.0" y="515.5" width="122.0" height="20.0" fill="#f9f9f9" stroke="black" stroke-width="0.75"/>
      <text x="-47.0" y="529.0" font-family="sans-serif" font-size="10.5" font-weight="bold" text-anchor="start">Dissolved O2</text>
      <rect x="70.0" y="515.5" width="58.4" height="20.0" fill="white" stroke="black" stroke-width="0.75"/>
      <text x="99.2" y="529.0" font-family="sans-serif" font-size="10.5" text-anchor="middle">8000 ppb</text>
      <rect x="128.4" y="515.5" width="58.4" height="20.0" fill="white" stroke="black" stroke-width="0.75"/>
      <text x="157.5" y="529.0" font-family="sans-serif" font-size="10.5" text-anchor="middle">150 ppb</text>
      <rect x="186.7" y="515.5" width="58.4" height="20.0" fill="white" stroke="black" stroke-width="0.75"/>
      <text x="215.9" y="529.0" font-family="sans-serif" font-size="10.5" text-anchor="middle">1600 ppb</text>
      <rect x="245.1" y="515.5" width="58.4" height="20.0" fill="white" stroke="black" stroke-width="0.75"/>
      <text x="274.3" y="529.0" font-family="sans-serif" font-size="10.5" text-anchor="middle">1600 ppb</text>
      <rect x="303.5" y="515.5" width="58.4" height="20.0" fill="white" stroke="black" stroke-width="0.75"/>
      <text x="332.6" y="529.0" font-family="sans-serif" font-size="10.5" text-anchor="middle">1600 ppb</text>
      <rect x="361.8" y="515.5" width="58.4" height="20.0" fill="white" stroke="black" stroke-width="0.75"/>
      <text x="391.0" y="529.0" font-family="sans-serif" font-size="10.5" text-anchor="middle">1600 ppb</text>
      <rect x="420.2" y="515.5" width="58.4" height="20.0" fill="white" stroke="black" stroke-width="0.75"/>
      <text x="449.4" y="529.0" font-family="sans-serif" font-size="10.5" text-anchor="middle">-</text>
      <rect x="478.5" y="515.5" width="58.4" height="20.0" fill="white" stroke="black" stroke-width="0.75"/>
      <text x="507.7" y="529.0" font-family="sans-serif" font-size="10.5" text-anchor="middle">7 ppb</text>
    </g>
    <rect x="1410.5" y="442.5" width="652.0" height="93.0" fill="white" stroke="black" stroke-width="2"/>
    <line x1="1710.5" y1="442.5" x2="1710.5" y2="535.5" stroke="black" stroke-width="1.5"/>
    <line x1="1810.5" y1="442.5" x2="1810.5" y2="535.5" stroke="black" stroke-width="1.5"/>
    <line x1="1410.5" y1="521.5" x2="1710.5" y2="521.5" stroke="black" stroke-width="1"/>
    <line x1="1432.5" y1="442.5" x2="1432.5" y2="535.5" stroke="black" stroke-width="0.5"/>
    <line x1="1482.5" y1="442.5" x2="1482.5" y2="535.5" stroke="black" stroke-width="0.5"/>
    <line x1="1614.5" y1="442.5" x2="1614.5" y2="535.5" stroke="black" stroke-width="0.5"/>
    <line x1="1646.5" y1="442.5" x2="1646.5" y2="535.5" stroke="black" stroke-width="0.5"/>
    <line x1="1678.5" y1="442.5" x2="1678.5" y2="535.5" stroke="black" stroke-width="0.5"/>
    <text x="1413.5" y="531.5" font-family="sans-serif" font-size="7.5" text-anchor="start" font-weight="bold" fill="black">REV</text>
    <text x="1435.5" y="531.5" font-family="sans-serif" font-size="7.5" text-anchor="start" font-weight="bold" fill="black">DATE</text>
    <text x="1485.5" y="531.5" font-family="sans-serif" font-size="7.5" text-anchor="start" font-weight="bold" fill="black">DESCRIPTION</text>
    <text x="1617.5" y="531.5" font-family="sans-serif" font-size="7.5" text-anchor="start" font-weight="bold" fill="black">BY</text>
    <text x="1649.5" y="531.5" font-family="sans-serif" font-size="7.5" text-anchor="start" font-weight="bold" fill="black">CHK&#x27;D</text>
    <text x="1681.5" y="531.5" font-family="sans-serif" font-size="7.5" text-anchor="start" font-weight="bold" fill="black">APP&#x27;D</text>
    <text x="1413.5" y="517.5" font-family="sans-serif" font-size="7.5" text-anchor="start" fill="black">B</text>
    <text x="1435.5" y="517.5" font-family="sans-serif" font-size="7.5" text-anchor="start" fill="black">2026-07-02</text>
    <text x="1485.5" y="517.5" font-family="sans-serif" font-size="7.5" text-anchor="start" fill="black">Added minimum-flow spillback</text>
    <text x="1617.5" y="517.5" font-family="sans-serif" font-size="7.5" text-anchor="start" fill="black">AA</text>
    <text x="1649.5" y="517.5" font-family="sans-serif" font-size="7.5" text-anchor="start" fill="black">JS</text>
    <text x="1681.5" y="517.5" font-family="sans-serif" font-size="7.5" text-anchor="start" fill="black">RL</text>
    <text x="1413.5" y="503.5" font-family="sans-serif" font-size="7.5" text-anchor="start" fill="black">A</text>
    <text x="1435.5" y="503.5" font-family="sans-serif" font-size="7.5" text-anchor="start" fill="black">2026-05-18</text>
    <text x="1485.5" y="503.5" font-family="sans-serif" font-size="7.5" text-anchor="start" fill="black">Issued for internal review</text>
    <text x="1617.5" y="503.5" font-family="sans-serif" font-size="7.5" text-anchor="start" fill="black">AA</text>
    <text x="1649.5" y="503.5" font-family="sans-serif" font-size="7.5" text-anchor="start" fill="black"></text>
    <text x="1681.5" y="503.5" font-family="sans-serif" font-size="7.5" text-anchor="start" fill="black"></text>
    <text x="1760.5" y="489.0" font-family="sans-serif" font-size="8.0" text-anchor="middle" font-weight="bold" fill="black">PANDID</text>
    <text x="1816.5" y="451.5" font-family="sans-serif" font-size="6.5" text-anchor="start" fill="#666">PROJECT</text>
    <text x="1852.8" y="451.5" font-family="sans-serif" font-size="9.0" text-anchor="start" fill="black">Steam System Upgrade</text>
    <line x1="1810.5" y1="455.5" x2="2062.5" y2="455.5" stroke="black" stroke-width="0.75"/>
    <line x1="1810.5" y1="487.5" x2="2062.5" y2="487.5" stroke="black" stroke-width="0.75"/>
    <line x1="1810.5" y1="509.9" x2="2062.5" y2="509.9" stroke="black" stroke-width="0.75"/>
    <text x="1816.5" y="470.5" font-family="sans-serif" font-size="12.5" text-anchor="start" font-weight="bold" fill="black">Utilities U200</text>
    <text x="1816.5" y="481.5" font-family="sans-serif" font-size="10.5" text-anchor="start" fill="black">Boiler Feedwater Package</text>
    <text x="2057.5" y="466.5" font-family="sans-serif" font-size="7.5" text-anchor="end" fill="#666">SHEET 1 of 2</text>
    <text x="1816.5" y="495.5" font-family="sans-serif" font-size="6.5" text-anchor="start" fill="#666">STATUS</text>
    <text x="1816.5" y="504.9" font-family="sans-serif" font-size="11.0" text-anchor="start" font-weight="bold" fill="black">ISSUED FOR REVIEW</text>
    <text x="1815.5" y="517.9" font-family="sans-serif" font-size="6.5" text-anchor="start" fill="#666">DRAWING No</text>
    <text x="1815.5" y="530.5" font-family="sans-serif" font-size="11.0" text-anchor="start" font-weight="bold" fill="black">PFD-2001</text>
    <line x1="1906.3" y1="509.9" x2="1906.3" y2="535.5" stroke="black" stroke-width="0.5"/>
    <text x="1911.3" y="517.9" font-family="sans-serif" font-size="6.5" text-anchor="start" fill="#666">SCALE</text>
    <line x1="1959.2" y1="509.9" x2="1959.2" y2="535.5" stroke="black" stroke-width="0.5"/>
    <text x="1964.2" y="517.9" font-family="sans-serif" font-size="6.5" text-anchor="start" fill="#666">DATE</text>
    <text x="1964.2" y="530.5" font-family="sans-serif" font-size="11.0" text-anchor="start" fill="black">2026-07-02</text>
    <line x1="2032.3" y1="509.9" x2="2032.3" y2="535.5" stroke="black" stroke-width="0.5"/>
    <text x="2037.3" y="517.9" font-family="sans-serif" font-size="6.5" text-anchor="start" fill="#666">REV</text>
    <text x="2037.3" y="530.5" font-family="sans-serif" font-size="11.0" text-anchor="start" font-weight="bold" fill="black">B</text>
  <defs>
    <marker id="arrow_black" viewBox="0 0 10 10" refX="10" refY="5" markerWidth="12" markerHeight="12" markerUnits="userSpaceOnUse" orient="auto-start-reverse">
      <path d="M 0 0 L 10 5 L 0 10 z" fill="black" />
    </marker>
    <symbol id="sym_fitting_strainer" viewBox="0 0 10.0 20.0" overflow="visible"><g transform="scale(0.25)"><rect x="0.0" y="0.0" width="40.0" height="80.0" fill="white" stroke="#111" stroke-width="4"/><path d="M 0.0 0.0 L 40.0 80.0" fill="none" stroke="#111" stroke-width="4" stroke-dasharray="16 16"/></g></symbol>
    <symbol id="sym_instrument" viewBox="0 0 44.0 44.0" overflow="visible"><circle cx="22" cy="22" r="21" fill="white" stroke="black" stroke-width="1"/></symbol>
    <symbol id="sym_instrument_panel" viewBox="0 0 44.0 44.0" overflow="visible"><circle cx="22" cy="22" r="21" fill="white" stroke="black" stroke-width="1"/><line x1="1" y1="22" x2="43" y2="22" stroke="black" stroke-width="0.75"/></symbol>
    <symbol id="sym_mixer" viewBox="0 0 50.0 50.0" overflow="visible"><polygon points="0,0 50,25 0,50" fill="none" stroke="black" stroke-width="2"/></symbol>
    <symbol id="sym_pump" viewBox="0 0 70.0 67.0" overflow="visible"><path d="M 12.0 54.0 L 0.0 67.0 L 60.0 67.0 L 48.0 54.0" fill="white" stroke="#111" stroke-width="2.0"/><path d="M 0.6 25.0 A 30.0 30.0 0.0 0 1 30.0 0.0 L 70.0 0.0 L 70.0 20.0 L 58.45 20.0 A 30.0 30.0 0.0 0 1 51.8587 50.8297 A 30.0 30.0 0.0 0 1 21.3414 58.7425 A 30.0 30.0 0.0 0 1 0.6 35.0" fill="white" stroke="#111" stroke-width="2.0"/><path d="M 21.4 25.0 A 10.0 10.0 0.0 1 1 21.4 35.0" fill="none" stroke="#111" stroke-width="2.0"/></symbol>
    <symbol id="sym_splitter" viewBox="0 0 50.0 50.0" overflow="visible"><polygon points="0,25 50,0 50,50" fill="none" stroke="black" stroke-width="2"/></symbol>
    <symbol id="sym_valve_control" viewBox="0 0 24.5 19.8" overflow="visible"><g transform="scale(0.25)"><path d="M 0.0 79.0 L 0.0 20.0 L 98.0 79.0 L 98.0 20.0 Z M 29.0 20.0 A 20.0 20.0 0.0 0 1 49.0 0.0 A 20.0 20.0 0.0 0 1 69.0 20.0 Z M 49.0 20.0 L 49.0 49.0" fill="white" stroke="#111" stroke-width="4"/></g></symbol>
    <symbol id="sym_vent" viewBox="0 0 20.0 35.0" overflow="visible"><g transform="scale(0.25)"><path d="M 40.0 40.0 L 40.0 140.0 M 0.0 40.0 L 40.0 0.0 L 80.0 40.0" fill="none" stroke="#111" stroke-width="4"/></g></symbol>
    <symbol id="sym_vessel_horizontal_s150x48" viewBox="0 0 150 48" overflow="visible"><path d="M 9.459016 48 L 140.606557 48 A 24 9.457705 90 0 0 150.064262 24 A 24 9.457705 90 0 0 140.606557 0 L 9.459016 0 A 24 9.457705 90 0 0 0.001311 24 A 24 9.457705 90 0 0 9.459016 48 Z M 9.459016 0 L 9.459016 48 M 140.606557 0 L 140.606557 48" fill="white" stroke="#111" stroke-width="2"/></symbol>
  </defs>
  <g id="units">
    <polygon points="-26.0,190.5 85.0,190.5 100.0,203.5 85.0,216.5 -26.0,216.5" fill="transparent" stroke="black" stroke-width="2" />
    <text x="29.5" y="199.5" font-family="sans-serif" font-size="12" text-anchor="middle" dominant-baseline="middle">Makeup Water</text>
    <text x="29.5" y="211.5" font-family="sans-serif" font-size="10.5" text-anchor="middle" dominant-baseline="middle" fill="#333">PFD-100</text>
    <use href="#sym_fitting_strainer" x="296" y="193.5" width="10.0" height="20.0" />
    <polygon points="180.0,319.0 331.0,319.0 346.0,332.0 331.0,345.0 180.0,345.0" fill="transparent" stroke="black" stroke-width="2" />
    <text x="255.5" y="328.0" font-family="sans-serif" font-size="12" text-anchor="middle" dominant-baseline="middle">Condensate Return</text>
    <text x="255.5" y="340.0" font-family="sans-serif" font-size="10.5" text-anchor="middle" dominant-baseline="middle" fill="#333">PFD-400</text>
    <use href="#sym_mixer" x="582" y="178.5" width="50.0" height="50.0" />
    <use href="#sym_pump" x="752" y="173.5" width="70.0" height="67.0" />
    <use href="#sym_splitter" x="942" y="158.5" width="50.0" height="50.0" />
    <use href="#sym_valve_control" x="1214" y="65.1" width="24.5" height="19.8" />
    <use href="#sym_vessel_horizontal_s150x48" x="1214" y="179.5" width="150" height="48" />
    <use href="#sym_vent" x="1294.16" y="114.5" width="20.0" height="35.0" />
    <use href="#sym_valve_control" x="1688" y="235.1" width="24.5" height="19.8" transform="translate(0, 490) scale(1, -1)" />
    <polygon points="1934.5,229.5 2021.5,229.5 2036.5,242.5 2021.5,255.5 1934.5,255.5" fill="transparent" stroke="black" stroke-width="2" />
    <text x="1978.0" y="238.5" font-family="sans-serif" font-size="12" text-anchor="middle" dominant-baseline="middle">To Boiler</text>
    <text x="1978.0" y="250.5" font-family="sans-serif" font-size="10.5" text-anchor="middle" dominant-baseline="middle" fill="#333">PFD-500</text>
  </g>
  <g id="streams">
    <path d="M 100.0,203.5 L 296.0,203.5" fill="none" stroke="black" stroke-width="2" marker-end="url(#arrow_black)" />
    <path d="M 306.0,203.5 L 582.0,203.5" fill="none" stroke="black" stroke-width="2" marker-end="url(#arrow_black)" />
    <path d="M 346.0,332.0 L 557.0,332.0 L 557.0,221.0 L 582.0,221.0" fill="none" stroke="black" stroke-width="2" marker-end="url(#arrow_black)" />
    <path d="M 632.0,203.5 L 752.0,203.5" fill="none" stroke="black" stroke-width="2" marker-end="url(#arrow_black)" />
    <path d="M 822.0,183.5 L 942.0,183.5" fill="none" stroke="black" stroke-width="2" marker-end="url(#arrow_black)" />
    <path d="M 992.0,193.5 L 1199.0,193.5 L 1199.0,154.5 L 1246.7868852459017,154.5 L 1246.7868852459017,179.5" fill="none" stroke="black" stroke-width="2" marker-end="url(#arrow_black)" />
    <path d="M 992.0,173.5 L 1189.0,173.5 L 1189.0,77.5 L 1214.0,77.5" fill="none" stroke="black" stroke-width="2" marker-end="url(#arrow_black)" />
    <path d="M 1238.5,77.5 L 1263.5,77.5 L 1263.5,5.099999999999994 L 557.0,5.099999999999994 L 557.0,186.0 L 582.0,186.0" fill="none" stroke="black" stroke-width="2" marker-end="url(#arrow_black)" />
    <path d="M 1304.1639344262294,179.5 L 1304.1639344262294,149.5" fill="none" stroke="black" stroke-width="2" marker-end="url(#arrow_black)" />
    <path d="M 1325.4754098360656,227.5 L 1325.4754098360656,242.5 L 1688.0,242.5" fill="none" stroke="black" stroke-width="2" marker-end="url(#arrow_black)" />
    <path d="M 1712.5,242.5 L 1934.5,242.5" fill="none" stroke="black" stroke-width="2" marker-end="url(#arrow_black)" />
    <path d="M 1289.0,307.5 L 1289.0,345.5" fill="none" stroke="black" stroke-width="1" stroke-dasharray="7,4" />
    <path d="M 1311.0,367.5 L 1653.25,367.5 L 1653.25,312.9 L 1678.25,312.9" fill="none" stroke="black" stroke-width="1" stroke-dasharray="7,4" />
    <path d="M 1700.25,290.9 L 1700.25,279.9 L 1700.2,279.9 L 1700.2,254.9" fill="none" stroke="black" stroke-width="1" />
    <line x1="1695.2" y1="261.9" x2="1705.2" y2="267.9" stroke="black" stroke-width="1" />
    <line x1="1695.2" y1="265.9" x2="1705.2" y2="271.9" stroke="black" stroke-width="1" />
    <rect x="188.8" y="197.0" width="18.4" height="13.0" fill="white" />
    <text x="198.0" y="203.5" font-family="sans-serif" font-size="10" text-anchor="middle" dominant-baseline="middle" fill="black">S1</text>
    <rect x="442.3" y="325.5" width="18.4" height="13.0" fill="white" />
    <text x="451.5" y="332.0" font-family="sans-serif" font-size="10" text-anchor="middle" dominant-baseline="middle" fill="black">S2</text>
    <rect x="682.8" y="197.0" width="18.4" height="13.0" fill="white" />
    <text x="692.0" y="203.5" font-family="sans-serif" font-size="10" text-anchor="middle" dominant-baseline="middle" fill="black">S3</text>
    <rect x="872.8" y="177.0" width="18.4" height="13.0" fill="white" />
    <text x="882.0" y="183.5" font-family="sans-serif" font-size="10" text-anchor="middle" dominant-baseline="middle" fill="black">S4</text>
    <rect x="1086.3" y="187.0" width="18.4" height="13.0" fill="white" />
    <text x="1095.5" y="193.5" font-family="sans-serif" font-size="10" text-anchor="middle" dominant-baseline="middle" fill="black">S5</text>
    <rect x="1081.3" y="167.0" width="18.4" height="13.0" fill="white" />
    <text x="1090.5" y="173.5" font-family="sans-serif" font-size="10" text-anchor="middle" dominant-baseline="middle" fill="black">S6</text>
    <rect x="1287.2" y="155.3" width="13.0" height="18.4" fill="white" />
    <text x="1293.7" y="164.5" font-family="sans-serif" font-size="10" text-anchor="middle" dominant-baseline="middle" fill="black" transform="rotate(-90, 1293.7, 164.5)">S7</text>
    <rect x="1497.5" y="236.0" width="18.4" height="13.0" fill="white" />
    <text x="1506.7" y="242.5" font-family="sans-serif" font-size="10" text-anchor="middle" dominant-baseline="middle" fill="black">S8</text>
  </g>
  <g id="instrument_taps">
    <line x1="1289" y1="227.5" x2="1289" y2="285.5" stroke="black" stroke-width="1" />
  </g>
  <g id="instruments">
    <use href="#sym_instrument" x="1267" y="263.5" width="44.0" height="44.0" />
    <text x="1289.0" y="281.5" font-family="sans-serif" font-size="12" font-weight="bold" text-anchor="middle" dominant-baseline="middle">LT</text>
    <text x="1289.0" y="295.5" font-family="sans-serif" font-size="11" text-anchor="middle" dominant-baseline="middle">201</text>
    <use href="#sym_instrument_panel" x="1267" y="345.5" width="44.0" height="44.0" />
    <text x="1289.0" y="357.5" font-family="sans-serif" font-size="12" font-weight="bold" text-anchor="middle" dominant-baseline="middle">LIC</text>
    <text x="1289.0" y="378.5" font-family="sans-serif" font-size="11" text-anchor="middle" dominant-baseline="middle">201</text>
    <use href="#sym_instrument" x="1678.25" y="290.9" width="44.0" height="44.0" />
    <text x="1700.25" y="308.9" font-family="sans-serif" font-size="12" font-weight="bold" text-anchor="middle" dominant-baseline="middle">LV</text>
    <text x="1700.25" y="322.9" font-family="sans-serif" font-size="11" text-anchor="middle" dominant-baseline="middle">201</text>
  </g>
  <g id="unit_labels">
    <rect x="277.2" y="171.5" width="47.6" height="15.0" fill="white" />
    <text x="301.0" y="183.5" font-family="sans-serif" font-size="12" text-anchor="middle" dominant-baseline="baseline">ST-201</text>
    <rect x="586.5" y="156.5" width="41.0" height="15.0" fill="white" />
    <text x="607.0" y="168.5" font-family="sans-serif" font-size="12" text-anchor="middle" dominant-baseline="baseline">M-201</text>
    <rect x="756.6" y="151.5" width="60.8" height="15.0" fill="white" />
    <text x="787.0" y="163.5" font-family="sans-serif" font-size="12" text-anchor="middle" dominant-baseline="baseline">P-201A/B</text>
    <rect x="943.2" y="136.5" width="47.6" height="15.0" fill="white" />
    <text x="967.0" y="148.5" font-family="sans-serif" font-size="12" text-anchor="middle" dominant-baseline="baseline">SP-201</text>
    <rect x="1202.5" y="43.1" width="47.6" height="15.0" fill="white" />
    <text x="1226.25" y="55.099999999999994" font-family="sans-serif" font-size="12" text-anchor="middle" dominant-baseline="baseline">FV-201</text>
    <rect x="1374.0" y="196.0" width="41.0" height="15.0" fill="white" />
    <text x="1374.0" y="203.5" font-family="sans-serif" font-size="12" text-anchor="start" dominant-baseline="middle">V-201</text>
    <rect x="1280.4" y="92.5" width="47.6" height="15.0" fill="white" />
    <text x="1304.1639344262294" y="104.5" font-family="sans-serif" font-size="12" text-anchor="middle" dominant-baseline="baseline">VT-201</text>
    <rect x="1676.5" y="213.1" width="47.6" height="15.0" fill="white" />
    <text x="1700.25" y="225.1" font-family="sans-serif" font-size="12" text-anchor="middle" dominant-baseline="baseline">CV-201</text>
  </g>
</svg>